<svg id="Layer_1" xmlns="http://www.w3.org/2000/svg" viewBox="0 0 600 600"><style>.st0{fill:none;stroke:#000;stroke-width:5}</style><path class="st0" d="M268.3 262.2c66.2.6 112.4-15 112.4-75.1 0-48.4-38.4-69-83.5-69-50.1 0-84 35.1-84 84h-35.6c0-35.1 11.7-63.4 37.8-87.9 24.5-22.3 56.8-26.2 89-26.2 61.8 0 111.9 31.2 111.9 96.8 0 40.6-17.8 71.2-55.7 87.4 56.8 17.8 69.6 60.7 69.6 96.8 0 64.6-45.6 116.9-126.3 119.1-90.7 0-131.3-30.1-139.7-121.3h35.6c0 59.5 39.5 91.3 97.4 91.3 56.8 0 99.6-42.3 97.4-88.5-2.2-63.4-57.3-83.5-126.3-78.5v-28.9z"/></svg>