<?xml version="1.0" encoding="utf-8"?>
<!-- Generator: Adobe Illustrator 18.0.0, SVG Export Plug-In . SVG Version: 6.00 Build 0)  -->
<!DOCTYPE svg PUBLIC "-//W3C//DTD SVG 1.1//EN" "http://www.w3.org/Graphics/SVG/1.1/DTD/svg11.dtd">
<svg version="1.1" id="Layer_1" xmlns="http://www.w3.org/2000/svg" xmlns:xlink="http://www.w3.org/1999/xlink" x="0px" y="0px"
	 viewBox="0 0 600 600" style="enable-background:new 0 0 600 600;" xml:space="preserve">
<style type="text/css">
	.st0{fill:none;stroke:#000000;stroke-width:5;}
</style>
<g>
	<path class="st0" d="M268.3,262.2c66.2,0.6,112.4-15,112.4-75.1c0-48.4-38.4-69-83.5-69c-50.1,0-84,35.1-84,84h-35.6
		c0-35.1,11.7-63.4,37.8-87.9c24.5-22.3,56.8-26.2,89-26.2c61.8,0,111.9,31.2,111.9,96.8c0,40.6-17.8,71.2-55.7,87.4
		c56.8,17.8,69.6,60.7,69.6,96.8c0,64.6-45.6,116.9-126.3,119.1c-90.7,0-131.3-30.1-139.7-121.3h35.6c0,59.5,39.5,91.3,97.4,91.3
		c56.8,0,99.6-42.3,97.4-88.5c-2.2-63.4-57.3-83.5-126.3-78.5V262.2z"/>
</g>
</svg>
